<?xml version="1.0" encoding="UTF-8" standalone="no"?>
<!-- Created with Inkscape (http://www.inkscape.org/) -->

<svg
   xmlns:dc="http://purl.org/dc/elements/1.1/"
   xmlns:cc="http://creativecommons.org/ns#"
   xmlns:rdf="http://www.w3.org/1999/02/22-rdf-syntax-ns#"
   xmlns:svg="http://www.w3.org/2000/svg"
   xmlns="http://www.w3.org/2000/svg"
   xmlns:sodipodi="http://sodipodi.sourceforge.net/DTD/sodipodi-0.dtd"
   xmlns:inkscape="http://www.inkscape.org/namespaces/inkscape"
   width="128"
   height="128"
   id="svg2"
   version="1.1"
   inkscape:version="0.48.5 r10040"
   sodipodi:docname="sensors.svg"
   inkscape:export-filename="/home/pi/Desktop/PiWars-2019/drawing.png"
   inkscape:export-xdpi="90"
   inkscape:export-ydpi="90">
  <defs
     id="defs4" />
  <sodipodi:namedview
     id="base"
     pagecolor="#ffffff"
     bordercolor="#666666"
     borderopacity="1.0"
     inkscape:pageopacity="0.0"
     inkscape:pageshadow="2"
     inkscape:zoom="3.959798"
     inkscape:cx="-11.886791"
     inkscape:cy="35.626801"
     inkscape:document-units="px"
     inkscape:current-layer="layer1"
     showgrid="false"
     inkscape:window-width="1920"
     inkscape:window-height="1016"
     inkscape:window-x="0"
     inkscape:window-y="36"
     inkscape:window-maximized="1" />
  <metadata
     id="metadata7">
    <rdf:RDF>
      <cc:Work
         rdf:about="">
        <dc:format>image/svg+xml</dc:format>
        <dc:type
           rdf:resource="http://purl.org/dc/dcmitype/StillImage" />
        <dc:title></dc:title>
      </cc:Work>
    </rdf:RDF>
  </metadata>
  <g
     inkscape:label="Layer 1"
     inkscape:groupmode="layer"
     id="layer1"
     transform="translate(0,-924.36218)">
    <g
       id="g3141">
      <rect
         y="924.14789"
         x="-0.17857143"
         height="128"
         width="128"
         id="rect3852"
         style="fill:#000000;fill-opacity:1;stroke:none" />
      <text
         sodipodi:linespacing="125%"
         id="text2985"
         y="940.70593"
         x="2.1361237"
         style="font-size:20px;font-style:italic;font-variant:normal;font-weight:bold;font-stretch:condensed;text-align:start;line-height:125%;letter-spacing:0px;word-spacing:0px;writing-mode:lr-tb;text-anchor:start;fill:#ffffff;fill-opacity:1;stroke:none;font-family:Roboto Condensed;-inkscape-font-specification:'Roboto Condensed, Bold Italic Condensed'"
         xml:space="preserve"><tspan
           y="940.70593"
           x="2.1361237"
           id="tspan2987"
           sodipodi:role="line">Spot:Bot</tspan></text>
      <text
         sodipodi:linespacing="125%"
         id="text2985-6"
         y="1048.1571"
         x="49.536392"
         style="font-size:20px;font-style:italic;font-variant:normal;font-weight:bold;font-stretch:condensed;text-align:start;line-height:125%;letter-spacing:0px;word-spacing:0px;writing-mode:lr-tb;text-anchor:start;fill:#ffffff;fill-opacity:1;stroke:none;font-family:Roboto Condensed;-inkscape-font-specification:'Roboto Condensed, Bold Italic Condensed'"
         xml:space="preserve"><tspan
           y="1048.1571"
           x="49.536392"
           id="tspan5378"
           sodipodi:role="line">PiWars'19</tspan></text>
      <g
         id="g5464">
        <path
           style="fill:none;stroke:#ffffff;stroke-width:2;stroke-miterlimit:4;stroke-opacity:0.94690265;stroke-dasharray:none;stroke-dashoffset:0"
           d="m 3.5560456,950.64788 120.8104244,0"
           id="path3035"
           inkscape:connector-curvature="0" />
        <path
           style="fill:none;stroke:#ffffff;stroke-width:2;stroke-miterlimit:4;stroke-opacity:0.94690265;stroke-dasharray:none;stroke-dashoffset:0"
           d="m 3.5560457,1025.6479 120.8104243,0"
           id="path3035-6"
           inkscape:connector-curvature="0" />
      </g>
      <g
         transform="translate(-5.573273,57.591659)"
         id="g5084">
        <rect
           style="fill:#000000;fill-opacity:1;stroke:#ffffff;stroke-width:2;stroke-miterlimit:4;stroke-opacity:0.94690265;stroke-dasharray:none"
           id="rect3062-18-73"
           width="9.1229925"
           height="16.179836"
           x="873.36353"
           y="-129.93974"
           rx="1.7209064"
           ry="1.0056148"
           transform="matrix(0,1,-1,0,0,0)" />
        <path
           style="fill:#000000;fill-opacity:1;stroke:#ffffff;stroke-width:2;stroke-miterlimit:4;stroke-opacity:0.94690265;stroke-dasharray:none"
           d="m 81.013842,868.97545 0,17.91632 4.514322,0 30.987196,0 3.03741,0 c 2.47006,0 4.45859,-2.23515 4.45859,-5.01156 l 0,-7.8932 c 0,-2.77641 -1.98853,-5.01156 -4.45859,-5.01156 l -3.03741,0 -31.460922,0 -4.040596,0 z"
           id="rect3062-18"
           inkscape:connector-curvature="0" />
      </g>
      <rect
         y="929.02527"
         x="78.646004"
         height="13"
         width="5"
         id="rect3062-18-28"
         style="fill:#ffffff;fill-opacity:1;stroke:none" />
      <rect
         y="929.02527"
         x="86.15226"
         height="13"
         width="5"
         id="rect3062-18-28-1"
         style="fill:#ffffff;fill-opacity:1;stroke:none" />
      <rect
         y="929.02527"
         x="93.658508"
         height="13"
         width="5"
         id="rect3062-18-28-2"
         style="fill:#ffffff;fill-opacity:1;stroke:none" />
      <rect
         y="929.02527"
         x="101.16476"
         height="13"
         width="5"
         id="rect3062-18-28-9"
         style="fill:#ffffff;fill-opacity:1;stroke:none" />
      <rect
         y="929.02527"
         x="108.67101"
         height="13"
         width="5"
         id="rect3062-18-28-3"
         style="fill:#ffffff;fill-opacity:1;stroke:none" />
      <text
         sodipodi:linespacing="125%"
         id="text2985-3-0"
         y="1048.3622"
         x="2.028702"
         style="font-size:22px;font-style:normal;font-variant:normal;font-weight:bold;font-stretch:condensed;text-align:start;line-height:125%;letter-spacing:0px;word-spacing:0px;writing-mode:lr-tb;text-anchor:start;fill:#ffffff;fill-opacity:1;stroke:none;font-family:Roboto Condensed;-inkscape-font-specification:'Roboto Condensed, Bold Condensed'"
         xml:space="preserve"><tspan
           y="1048.3622"
           x="2.028702"
           id="tspan5376"
           sodipodi:role="line">2</tspan></text>
      <g
         transform="translate(0,1.2072443)"
         id="g5684">
        <path
           sodipodi:type="arc"
           style="fill:#000000;fill-opacity:1;stroke:#ffffff;stroke-width:2.30186152;stroke-miterlimit:4;stroke-opacity:1;stroke-dasharray:none;stroke-dashoffset:0"
           id="path5247"
           sodipodi:cx="63.63961"
           sodipodi:cy="71.683998"
           sodipodi:rx="50.002552"
           sodipodi:ry="21.718279"
           d="m 113.64216,71.683998 c 0,11.994674 -22.386903,21.718279 -50.00255,21.718279 -27.615647,0 -50.002552,-9.723605 -50.002552,-21.718279 0,-11.994674 22.386905,-21.718279 50.002552,-21.718279 27.615647,0 50.00255,9.723605 50.00255,21.718279 z"
           transform="matrix(0.78447694,0,0,0.9623242,14.037451,928.54213)" />
        <g
           id="g4618"
           transform="matrix(1.249989,-0.00524575,0.00524575,1.249989,-137.49509,-198.68956)">
          <path
             inkscape:transform-center-y="-0.61257375"
             inkscape:transform-center-x="-0.016274073"
             transform="matrix(0.59271109,0,0,0.68000286,62.430918,932.75655)"
             d="m 165.53571,24.964286 -11.35508,0.127288 5.56731,-9.897434 z"
             inkscape:randomized="0"
             inkscape:rounded="0"
             inkscape:flatsided="true"
             sodipodi:arg2="1.559587"
             sodipodi:arg1="0.51238946"
             sodipodi:r2="3.2781358"
             sodipodi:r1="6.5562716"
             sodipodi:cy="21.75"
             sodipodi:cx="159.82143"
             sodipodi:sides="3"
             id="path4612"
             style="fill:#ffffff;fill-opacity:1;stroke:#ffffff;stroke-width:2;stroke-miterlimit:4;stroke-opacity:0.94690265;stroke-dasharray:none;stroke-dashoffset:0"
             sodipodi:type="star" />
          <path
             inkscape:connector-curvature="0"
             id="path4616"
             d="m 157.18063,946.94781 0,11.49049"
             style="fill:#ffffff;fill-opacity:1;stroke:#ffffff;stroke-width:2;stroke-miterlimit:4;stroke-opacity:0.94690265;stroke-dasharray:none;stroke-dashoffset:0" />
        </g>
        <path
           sodipodi:type="arc"
           style="fill:#ffffff;fill-opacity:1;stroke:none"
           id="path5160"
           sodipodi:cx="67.680222"
           sodipodi:cy="73.072952"
           sodipodi:rx="1.5152289"
           sodipodi:ry="2.3991122"
           d="m 69.19545,73.072952 c 0,1.324993 -0.678391,2.399112 -1.515228,2.399112 -0.836838,0 -1.515229,-1.074119 -1.515229,-2.399112 0,-1.324993 0.678391,-2.399112 1.515229,-2.399112 0.836837,0 1.515228,1.074119 1.515228,2.399112 z"
           transform="matrix(1.6499158,0,0,1.0420521,-47.705409,921.37956)" />
        <text
           xml:space="preserve"
           style="font-size:16px;font-style:normal;font-variant:normal;font-weight:bold;font-stretch:condensed;text-align:start;line-height:125%;letter-spacing:0px;word-spacing:0px;writing-mode:lr-tb;text-anchor:start;fill:#ffffff;fill-opacity:1;stroke:none;font-family:Roboto Condensed;-inkscape-font-specification:'Roboto Condensed, Bold Condensed'"
           x="28.973938"
           y="1003.2129"
           id="text2985-6-8"
           sodipodi:linespacing="125%"><tspan
             sodipodi:role="line"
             id="tspan5305"
             x="28.973938"
             y="1003.2129">W</tspan></text>
        <text
           xml:space="preserve"
           style="font-size:16px;font-style:normal;font-variant:normal;font-weight:bold;font-stretch:condensed;text-align:start;line-height:125%;letter-spacing:0px;word-spacing:0px;writing-mode:lr-tb;text-anchor:start;fill:#ffffff;fill-opacity:1;stroke:none;font-family:Roboto Condensed;-inkscape-font-specification:'Roboto Condensed, Bold Condensed'"
           x="87.701622"
           y="1003.2129"
           id="text2985-6-8-5"
           sodipodi:linespacing="125%"><tspan
             sodipodi:role="line"
             id="tspan5328"
             x="87.701622"
             y="1003.2129">E</tspan></text>
        <path
           style="fill:#008080;fill-opacity:1;stroke:#ffffff;stroke-width:0.40000001;stroke-miterlimit:4;stroke-opacity:1;stroke-dasharray:none;stroke-dashoffset:0"
           d="m 64.081822,982.75857 c -0.241128,29.53363 -0.241128,29.53363 -0.241128,29.53363"
           id="path5356"
           inkscape:connector-curvature="0" />
        <path
           style="fill:#008080;fill-opacity:1;stroke:#ffffff;stroke-width:0.40000001;stroke-miterlimit:4;stroke-opacity:1;stroke-dasharray:none;stroke-dashoffset:0"
           d="M 83.711193,997.62906 C 44.211322,997.4217 44.211322,997.4217 44.211322,997.4217"
           id="path5356-0"
           inkscape:connector-curvature="0" />
        <path
           inkscape:connector-curvature="0"
           style="fill:#000000;fill-opacity:1;stroke:#ffffff;stroke-width:2;stroke-miterlimit:4;stroke-opacity:1;stroke-dashoffset:0"
           d="m 3.59375,31.09375 0,62.9375 29.1875,0 C 23.394522,88.882922 17.5,81.429589 17.5,73.15625 c 0,-0.570013 0.03854,-1.125913 0.09375,-1.6875 l 0,-40.375 -14,0 z"
           transform="translate(0,924.36218)"
           id="rect5239-2" />
        <path
           inkscape:connector-curvature="0"
           style="fill:#000000;fill-opacity:1;stroke:#ffffff;stroke-width:2;stroke-miterlimit:4;stroke-opacity:1;stroke-dashoffset:0"
           d="m 124.36642,955.45589 0,62.93761 -29.187496,0 c 9.386726,-5.1484 15.281246,-12.6017 15.281246,-20.87511 0,-0.57001 -0.0385,-1.1259 -0.0937,-1.6875 l 0,-40.375 14,0 z"
           id="rect5239-2-4" />
        <path
           inkscape:connector-curvature="0"
           style="fill:#000000;fill-opacity:1;stroke:#ffffff;stroke-width:2;stroke-miterlimit:4;stroke-opacity:1;stroke-dashoffset:0"
           d="m 24.84375,31.09375 0,26.90625 c 8.260652,-7.797123 22.691527,-12.96875 39.125,-12.96875 16.417367,0 30.829096,5.153172 39.09375,12.9375 l 0,-26.875 -78.21875,0 z"
           id="rect5239-3-7"
           transform="translate(0,924.36218)" />
      </g>
      <rect
         transform="matrix(0,-1,1,0,0,0)"
         y="6.5"
         x="-1001.9229"
         height="8"
         width="5"
         id="rect3062-18-28-6"
         style="fill:#ffffff;fill-opacity:1;stroke:none" />
      <rect
         transform="matrix(0,-1,1,0,0,0)"
         y="6.5"
         x="-994.53003"
         height="8"
         width="5"
         id="rect3062-18-28-6-9"
         style="fill:#ffffff;fill-opacity:1;stroke:none" />
      <rect
         transform="matrix(0,-1,1,0,0,0)"
         y="6.5"
         x="-987.13721"
         height="8"
         width="5"
         id="rect3062-18-28-6-3"
         style="fill:#ffffff;fill-opacity:1;stroke:none" />
      <rect
         transform="matrix(0,-1,1,0,0,0)"
         y="6.5"
         x="-972.3515"
         height="8"
         width="5"
         id="rect3062-18-28-6-7"
         style="fill:#ffffff;fill-opacity:1;stroke:none" />
      <rect
         transform="matrix(0,-1,1,0,0,0)"
         y="6.5"
         x="-964.95862"
         height="8"
         width="5"
         id="rect3062-18-28-6-4"
         style="fill:#ffffff;fill-opacity:1;stroke:none" />
      <rect
         transform="matrix(0,-1,1,0,0,0)"
         y="6.5"
         x="-1009.3157"
         height="8"
         width="5"
         id="rect3062-18-28-6-5"
         style="fill:#ffffff;fill-opacity:1;stroke:none" />
      <rect
         transform="matrix(0,-1,1,0,0,0)"
         y="6.5"
         x="-1016.7086"
         height="8"
         width="5"
         id="rect3062-18-28-6-2"
         style="fill:#ffffff;fill-opacity:1;stroke:none" />
      <rect
         transform="matrix(0,-1,1,0,0,0)"
         y="6.5"
         x="-979.74432"
         height="8"
         width="5"
         id="rect3062-18-28-6-54"
         style="fill:#ffffff;fill-opacity:1;stroke:none" />
      <g
         transform="translate(-0.68785095,-2.9143066)"
         id="g5817">
        <rect
           style="fill:#ffffff;fill-opacity:1;stroke:none"
           id="rect3062-18-28-6-74"
           width="5"
           height="8"
           x="-1004.8372"
           y="114.18785"
           transform="matrix(0,-1,1,0,0,0)" />
        <rect
           style="fill:#ffffff;fill-opacity:1;stroke:none"
           id="rect3062-18-28-6-9-4"
           width="5"
           height="8"
           x="-997.44434"
           y="114.18785"
           transform="matrix(0,-1,1,0,0,0)" />
        <rect
           style="fill:#ffffff;fill-opacity:1;stroke:none"
           id="rect3062-18-28-6-3-3"
           width="5"
           height="8"
           x="-990.05151"
           y="114.18785"
           transform="matrix(0,-1,1,0,0,0)" />
        <rect
           style="fill:#ffffff;fill-opacity:1;stroke:none"
           id="rect3062-18-28-6-7-0"
           width="5"
           height="8"
           x="-975.26581"
           y="114.18785"
           transform="matrix(0,-1,1,0,0,0)" />
        <rect
           style="fill:#ffffff;fill-opacity:1;stroke:none"
           id="rect3062-18-28-6-4-7"
           width="5"
           height="8"
           x="-967.87292"
           y="114.18785"
           transform="matrix(0,-1,1,0,0,0)" />
        <rect
           style="fill:#ffffff;fill-opacity:1;stroke:none"
           id="rect3062-18-28-6-5-8"
           width="5"
           height="8"
           x="-1012.23"
           y="114.18785"
           transform="matrix(0,-1,1,0,0,0)" />
        <rect
           style="fill:#ffffff;fill-opacity:1;stroke:none"
           id="rect3062-18-28-6-2-6"
           width="5"
           height="8"
           x="-1019.6229"
           y="114.18785"
           transform="matrix(0,-1,1,0,0,0)" />
        <rect
           style="fill:#ffffff;fill-opacity:1;stroke:none"
           id="rect3062-18-28-6-54-8"
           width="5"
           height="8"
           x="-982.65863"
           y="114.18785"
           transform="matrix(0,-1,1,0,0,0)" />
      </g>
      <g
         transform="translate(0,0.14599348)"
         id="g5902">
        <rect
           style="fill:#ffffff;fill-opacity:1;stroke:none"
           id="rect3062-18-28-6-74-4"
           width="5"
           height="8"
           x="43.511948"
           y="959.21619" />
        <rect
           style="fill:#ffffff;fill-opacity:1;stroke:none"
           id="rect3062-18-28-6-9-4-3"
           width="5"
           height="8"
           x="50.792332"
           y="959.21619" />
        <rect
           style="fill:#ffffff;fill-opacity:1;stroke:none"
           id="rect3062-18-28-6-3-3-1"
           width="5"
           height="8"
           x="58.072716"
           y="959.21619" />
        <rect
           style="fill:#ffffff;fill-opacity:1;stroke:none"
           id="rect3062-18-28-6-7-0-4"
           width="5"
           height="8"
           x="72.633484"
           y="959.21619" />
        <rect
           style="fill:#ffffff;fill-opacity:1;stroke:none"
           id="rect3062-18-28-6-4-7-9"
           width="5"
           height="8"
           x="79.913872"
           y="959.21619" />
        <rect
           style="fill:#ffffff;fill-opacity:1;stroke:none"
           id="rect3062-18-28-6-5-8-2"
           width="5"
           height="8"
           x="36.23156"
           y="959.21619" />
        <rect
           style="fill:#ffffff;fill-opacity:1;stroke:none"
           id="rect3062-18-28-6-2-6-0"
           width="5"
           height="8"
           x="28.951176"
           y="959.21619" />
        <rect
           style="fill:#ffffff;fill-opacity:1;stroke:none"
           id="rect3062-18-28-6-54-8-6"
           width="5"
           height="8"
           x="65.353104"
           y="959.21619" />
        <rect
           style="fill:#ffffff;fill-opacity:1;stroke:none"
           id="rect3062-18-28-6-2-8"
           width="5"
           height="8"
           x="87.19426"
           y="959.21619" />
        <rect
           style="fill:#ffffff;fill-opacity:1;stroke:none"
           id="rect3062-18-28-6-2-9"
           width="5"
           height="8"
           x="94.47464"
           y="959.21619" />
      </g>
    </g>
  </g>
</svg>
